<svg viewBox="0 0 161 151" xmlns="http://www.w3.org/2000/svg" width="161" height="151">
                                <g fill="none">
                                    <path fill="#D71920" d="M0 0h160.76v150.9H0"/>
                                    <path fill="#FFF" d="M83.8 47.26c.42-.4 4.73-4.2 5.18-4.72 1.27-1.37 1.97-3.16 1.98-5.02v-14c-.03-1.43.5-2.8 1.5-3.83.5-.6 2.13-2 2.56-2.4h-1.36l-5.56 5c-.68.6-1.62 2.3-1.62 4.7v14.6c0 1.2-.44 2.3-1.15 3l-2.9 2.6h1.38zm12.44 9.2c-.24-.25-1.8-1.7-1.8-1.7v5.8l2.05 2.12c1.5 1.67 1.5 4.7-3.4 9.54-.9.85-3.4 3.2-6.8 3.2h-8.9l5.3 4.62h3.5c3.4 0 6.6-1.35 9-3.72 2.2-2.17 3-5.08 3-7.82v-7.6c-.1-1.7-.8-3.32-2.1-4.46zm7.34-12.17c-1.67 0-5.35 3.5-5.35 3.5l-1.4-1.6V49s-1.7 1.57-2.95 1.57h-2.9v-2.9c0-1.34.55-2.87 1.14-3.5.5-.5 2.68-2.46 2.87-2.64h-1.4c-.6.4-5.1 4.52-5.6 5.16-1 1.1-1.6 3.2-1.6 3.8H65.5c-2.56 0-4.32-2.6-4.32-4.8l.07-5.4c0-4.4-1.15-4.9-1.35-5h-1.84c1.2.6 1.96 2.6 1.96 3.8v7.1c.05 1.9 1.42 9.1 7.87 9.1h18.5v11.9c0 1.9-.7 3-1.2 3.6-.5.5-3 2.7-3 2.7h1.3c.7-.6 4.6-4.2 5.1-4.6 1.1-1 2.2-2.3 2.2-5.9v-7.5s1.6-1.8 2.1-2.2l3.7-3.5c0 4.3 3 5.1 4.7 3.5.7-.6 2.8-2.6 3.3-3.1 1.5-1.5 2.4-6.2-1.3-6.2zm-2.54 6.4c-.74-.7-1.45-1.5-2.1-2.2 2.15-1.4 3.4-.6 3.7-.1 1.28 2 .4 3.8-1.6 2.2zM76.5 62.1c0-1.5-.97-2-3.34-4.3l-3.56 3.6c2.45 2.4 3.27 3.6 3.5 4.7.2-.2 3.44-2.9 3.44-3.9zm-9.62-14.5h9.84c.8 0 1.6-.23 2.18-.8.4-.33 3.04-3 3.3-3.3.48-.5.74-1.2.7-1.9v-3.7c0-3.64-2.85-6.48-2.85-6.48s.58-.44.62-1.98V25.6s1.18 1.1 1.23 1.57l2.07-2.1c.87-.97-.6-2.85-1.32-3.56-2.06-2-2.04-4.2-2.04-4.2l-2.4 2.4c-.9 1.1-.7 3 1.3 5v5c0 .4-.2.7-.4.9 0 0-2.8-2.6-5.5-2.6h-3.9c-2.5 0-4.5 2.3-4.7 2.5-1.3 1.3-1.3 3.8-.2 4.9l2.8 2.7s-.7-4.4 0-7.4c.2-.9 1.8-1.8 3-1 2.2 1.5 5.3 4.4 5.3 4.4l-7.4 7.8c-.3.3-1.3 1.1-2.2 1.1-1.2 0-1.7-.7-2.2-1.2l-.1 3.7c.1 1.2 1.7 2.5 3.2 2.5zm3.43-6.32l6.4-6.5s3.5 3.6 4.6 5.5c.6.95 1.2 2.8-1.8 2.8H68.3c.9-.52 1.1-.8 2.05-1.8zm10.3 29.8c1-1.14 2.1-2.05 2.1-5v-2.9c0-2.5-1.4-3.56-2.1-4.26l-1.7-1.64v5.93l1.8 1.8c2.5 2 .5 5.5-1.8 5.5H68.2c-4.07 0-9.16-3.3-9.16-9.2v-4.8c0-4.9-1.36-4.9-1.36-4.9h-1.84s1.97 1.1 1.97 3.9v8.9c0 5.7 4.8 11 10.6 11h4.8c2.9 0 3.9-.7 5.7-2.2.7-.6 1.5-1.5 1.8-1.9zm-11.3-8.9c0-1.5-.9-2-3.3-4.38l-3.5 3.6c2.4 2.44 3.3 3.65 3.5 4.74.2-.2 3.5-2.9 3.5-3.9zm-5 38.12V90.2c0-4.02-3-5.34-5.4-5.34-3.2 0-4.4 2.3-4.9 3.63-.7-2.6-3.2-3.7-5.3-3.7-3.9 0-4.9 3.7-4.9 3.7s-.1-3.6-3.2-3.6h-3.1s1.8.7 1.8 3.8v11.5c0 3.8 1.6 3.9 1.6 3.9H46c-.18-.1-2-1.4-2-3.9V90s.45-2 3-2c.7 0 1.4.3 1.9.83.5.5.72 1.2.7 1.92v9.5c0 3.85 1.5 3.86 1.5 3.86h5.1c-1.2-.9-1.9-2.3-1.95-3.9V90c.4-1.2 1.5-2 2.8-1.94 1.5 0 2.7 1.22 2.7 2.74v9.48c0 3.9 1.5 3.86 1.5 3.86h5.14c-1.3-.92-2-2.36-2-3.9zm8.9.08V89.3c0-4.3-2.2-4.3-3.3-4.3h-3.1s1.8.8 1.8 3.83v11.57c0 3.7 1.6 3.83 1.6 3.83h5.1c-1.2-.9-2-2.34-2-3.87zm10.4-11.44c1.7-1.1 4-.77 5.3.77v-3.3s-.5-1.3-2.6-1.3c-3.2 0-4 3.8-4 3.8-.2-2.9-1-3.8-3.3-3.8h-3.1s1.8.8 1.8 3.9v11.6c0 3.8 1.6 3.9 1.6 3.9h5.1c-1.2-.9-2-2.3-1.9-3.9V91c.2-.8.6-1.5 1.3-1.95zm29-1.8c1.1 0 2.1.27 3 .78V85h-4.2v-4.4c-.9 1.4-2 2.67-3.3 3.73-1.5 1.3-4.6 2.8-4.6 2.8h3.3v13.36c0 3.4 1.6 3.7 1.6 3.7h5.1s-1.9-1.4-1.9-3.8V87.1h1.3zm15.5 5.8c3.8-3.94 1-8.1-4.2-8.07-5.2 0-8 4.83-8 10.1 0 5.3 3.4 9.2 8.4 9.2 3.8 0 5.5-1.4 5.5-1.4V99.4c-2 3.56-5.1 2.55-5.9 2.2-2.2-1.05-2.5-4-2.5-4 1.8-2.2 4-1.74 6.9-4.7zm-7.2 2.6s-.6-8.9 2.7-9.13c2.9-.2 2.2 3.8 1.4 5.3-1.3 2.4-2.9 2.6-4 3.9zm-50-12.17c.7 0 1.3-.27 1.7-.7.5-.43.7-1.03.7-1.65 0-1.3-1-2.36-2.4-2.35-.6 0-1.2.26-1.6.7-.4.47-.6 1.07-.6 1.7 0 .6.2 1.2.7 1.63.5.44 1.1.68 1.7.67zm71.4 11.1c-1.2-1.5-3.3-2.7-5-3.7-2.3-1.3-2-4.2 1.4-3.9 2.6.2 3.6 2.65 3.6 2.65v-3.2c-1.4-1.03-3.1-1.56-4.9-1.55-3 0-5.7 2.04-5.7 4.6 0 2.3 1 3.78 2.9 5.14.9.6 1.8 1.2 2.7 1.7 1.5.8 2.1 1.9 2.1 2.8.1 1.4-1.1 3.2-3.7 3.2l-3.7-2.7v3.5c1.5.9 3.1 1.4 4.8 1.4 3.5 0 6.9-2.5 6.9-6.3 0-1.2-.4-2.4-1.2-3.4zm-40.5 5.9V89.8c0-3.37-2.8-4.88-5.9-4.88-1.7 0-3.3.5-4.7 1.43v3.35s1.2-2.65 3.7-2.65c2.2 0 2.9 1.07 2.9 2.16 0 1.9-1.6 2.7-2.6 3.2-3 1.4-6.9 2.8-6.9 7.2 0 3 2.2 4.7 5.2 4.7 1.6 0 3.2-.8 4-2.3.3 2.1 1.4 2.3 1.4 2.3 2.7 0 5.1.1 5.1.1-1.3-.8-2-2.3-2-3.8zm-4.6.5c-.5.7-1.4 1.1-2.3 1.1-1.6 0-2.7-.87-2.7-2.7 0-4.3 3.9-5.2 5-6.5v8.1zm-64.9.7h-5.7c-1.5 0-1.8-1.1-1.8-2.7V90.6h4.3c2.6 0 3.8.86 3.8.86s-1.1-3.3-5.4-3.3h-2.6v-2.6c0-2.25-.5-2.96-.5-2.96h5c5.4 0 7.2 1.7 7.2 1.7S36 80 29.7 80H17.3s2.04 1.65 2.04 5.5v14.74c0 3.73 1.6 3.9 1.6 3.9H33c1.83 0 3.73-1.04 3.73-3v-1.4s-.88 1.8-4.5 1.8zm-13.4 8.9h124.6v1.22H18.7v-1.3zm12.5 21c0 .7-.7 2.06-2.6 2.06h-8.5c-1-.08-1-2.68-1-2.68v-10.4s.1-2.58-1.4-3.86h8.6s4.4 0 4.8 3c-1.8-1.3-3.5-1.2-5.8-1.2h-2.6s.4.4.4 2v1.8H25s2.84 0 3.8 2.3c-1.34-.8-2.7-.7-3.8-.6h-1.9v5.6c0 1 0 1.9 1.24 1.9h4s2.5 0 3.1-1.3l-.02 1zm10 2.06c-1 0-1-2.7-1-2.7v-6.64c0-1.1-.9-2-1.8-2-1.5 0-2 1.1-2.1 1.4v7.1c0 1 .5 2.1 1.4 2.7h-3.6c-1.1 0-1.1-2.7-1.1-2.7v-8.1s0-2.2-1.3-2.8H34s2.2 0 2.34 2.6c.5-1.7 1.98-2.8 3.68-2.9 1.47 0 3.57.9 3.57 3.9v7.1s0 1.8 1.3 2.7h-3.6zm20-14.53c-.4 0-.8-.16-1.1-.47-.3-.3-.5-.72-.5-1.16.1-.9.8-1.6 1.7-1.6.9 0 1.6.7 1.7 1.6 0 .44-.1.86-.5 1.17-.3.3-.7.47-1.1.47zm-.5 14.55c-1.1 0-1.1-2.67-1.1-2.67v-8.2s0-2.13-1.2-2.65h2.2c.8 0 2.4-.03 2.4 3v7.8h.1s0 1.8 1.3 2.7H61zm13.3 0c-1.1 0-1.1-2.7-1.1-2.7v-6.63c0-1.03-1-1.92-1.8-1.92-1.6 0-2.1 1.1-2.1 1.4v7.13c0 1.08.5 2.1 1.3 2.73H67c-1.07 0-1.07-2.7-1.07-2.7v-8.04s0-2.18-1.35-2.78h2.16s2.2 0 2.37 2.6c.5-1.63 2-2.76 3.7-2.84 1.5 0 3.6.97 3.6 3.92v7.13s0 1.8 1.4 2.73l-3.5-.02zM85 124.8c-.92 1.72-2.15 1.9-2.92 2.76-.47-6.3 1.95-6.48 1.95-6.48 2.07-.14 1.6 2.6.98 3.73zm3.4 5.72c-1.43 2.53-3.46 1.8-4.28 1.45-1.06-.58-1.76-1.66-1.83-2.87 1.3-1.58 2.9-1.26 5-3.4 2.7-2.84.7-5.84-3-5.82-3.8 0-5.9 3.54-5.9 7.3 0 3.83 2.4 6.68 6.1 6.68 0 0 3 0 3.9-1.1v-2.24zm7.9-5.7c-.93 1.7-2.16 1.88-2.93 2.74-.5-6.3 1.92-6.48 1.92-6.48 2-.14 1.6 2.6.9 3.73zm3.4 5.7c-1.44 2.53-3.46 1.8-4.28 1.45-1.06-.58-1.75-1.66-1.83-2.87 1.3-1.58 2.9-1.26 5-3.4 2.7-2.84.7-5.84-3.1-5.82-3.8 0-5.8 3.54-5.8 7.3 0 3.83 2.4 6.68 6 6.68 0 0 3 0 3.9-1.1v-2.24zm6.58-7.93c-.5.3-.72.4-.86 1.3v6.8c0 1.1.5 2.1 1.37 2.7h-3.6c-1.1 0-1.1-2.7-1.1-2.7v-8.2s0-2.2-1.3-2.7l2.1-.1c1.5 0 2.1.4 2.3 2.5.5-2.8 2.8-2.8 2.8-2.8s1.4 0 1.8.9v2.4c-.9-1.1-2.5-1.33-3.7-.56zm7.7-3.6c-.4 0-.83-.2-1.14-.5-.32-.3-.5-.7-.5-1.2 0-.9.75-1.7 1.66-1.7.95 0 1.7.7 1.7 1.6 0 .4-.2.8-.5 1.1-.3.3-.73.5-1.17.5zm-.5 14.5c-1.1 0-1.1-2.7-1.1-2.7v-8.2s0-2.2-1.24-2.7h2.15c.8 0 2.3-.1 2.3 3v7.8s0 1.8 1.3 2.7h-3.6zm13.38 0c-1.06 0-1.06-2.7-1.06-2.7v-6.7c0-1.1-.94-1.9-1.82-1.9-1.53 0-2.05 1.1-2.1 1.4v7.1c0 1.1.5 2.1 1.37 2.7h-3.56c-1.1 0-1.1-2.7-1.1-2.7v-8.1s0-2.2-1.4-2.8h2.1s2.2 0 2.3 2.6c.5-1.6 2-2.8 3.7-2.8 1.4 0 3.5.9 3.5 3.9v7.1s0 1.8 1.3 2.7h-3.6zM140.2 120h2.9c-.7.6-.7 2.18-.7 2.18v8.6c0 2.07.23 5.3-2.16 6.8h-3.64c1.7-1.1 2.72-3.04 2.65-5.08 0 .14-.37 1.28-2.2 1.28-3.4 0-5.75-2.8-5.75-6.6 0-4.5 2.47-7.4 5.65-7.4 0 0 1.64 0 2.4 1.34.14-1.1.85-1.1.85-1.1zm-2.26 12.3s.92 0 1.25-.74v-8.37c-.8-2.2-2.4-2.2-2.4-2.2-2.1 0-2.2 3.6-2.2 6.3 0 2.7 1 5 3.2 5zM54.64 120h2.9c-.72.6-.72 2.17-.72 2.17v8.6c0 2.07.24 5.3-2.16 6.8h-3.64c1.7-1.1 2.72-3.04 2.65-5.08 0 .1-.38 1.2-2.2 1.2-3.4 0-5.76-2.8-5.76-6.6 0-4.5 2.5-7.4 5.7-7.4 0 0 1.7 0 2.4 1.3.2-1.1.9-1.1.9-1.1zm-2.24 12.3s.92 0 1.24-.72v-8.37c-.72-2.1-2.3-2.1-2.3-2.1-2.04 0-2.22 3.7-2.22 6.3 0 2.7 1.02 5 3.28 5z"/>
                                </g>
                            </svg>